<svg fill="none" height="28" viewBox="0 0 100 28" width="100" xmlns="http://www.w3.org/2000/svg"><path d="m91.1113 17.0039v-5l8.8887 2.5z" fill="#8e8ea0"/><path d="m.00195312 14.5078h63.68704688 31.8729" stroke="#8e8ea0" stroke-miterlimit="16"/><path d="m28.2003 11h1.05v-8.51669h-1.05zm3.5105-6.95335c.3734 0 .6417-.25667.6417-.61834s-.2683-.61833-.6417-.61833c-.385 0-.6416.25666-.6416.61833s.2566.61834.6416.61834zm-.525 6.95335h1.0384v-5.99668h-1.0384zm5.8898.14c1.5867 0 2.5084-1.19 2.5084-2.67167v-.93334c0-1.52834-.9567-2.67167-2.4967-2.67167-.8984 0-1.575.40833-1.9367.98v-3.36001h-1.0383v8.51669h.9916v-.8867c.2567.5367 1.0034 1.0267 1.9717 1.0267zm-.21-.8517c-1.0967 0-1.715-.8283-1.715-1.91331v-.805c0-1.155.7933-1.85501 1.7267-1.85501 1.0733 0 1.6566.82834 1.6566 1.86668v.84c0 1.03834-.5016 1.86664-1.6683 1.86664zm4.3588.7117h5.1567v-.8983h-4.0834v-7.26839h-1.0733zm6.6651 0h5.1566v-.8983h-4.0833v-7.26839h-1.0733zm7.8872 0h1.19l2.8-8.16669h-1.0617l-2.3333 7.08169-2.345-7.08169h-1.0617zm5.3062 0h1.015v-6.10168l2.0883 4.13001h1.0033l2.0884-4.13001v6.10168h1.015v-8.16669h-.9917l-2.6133 5.22668-2.6134-5.22668h-.9916z" fill="#191927"/></svg>